<svg xmlns="http://www.w3.org/2000/svg" width="24" height="28" viewBox="0 0 24 28">
  <defs>
    <style>
      .cls-1 {
        fill: #fff;
        fill-rule: evenodd;
      }
    </style>
  </defs>
  <path id="Apple_Logo" data-name="Apple Logo" class="cls-1" d="M1107.83,4979.26c3.27,0,5.35,3.14,5.35,3.14a6.465,6.465,0,0,0-3.18,5.44,6.054,6.054,0,0,0,4,5.72s-3.16,7.44-6.71,7.44c-1.99,0-2.13-1.14-4.78-1.14-2.3,0-3.08,1.14-4.83,1.14-3.35,0-7.67-7.26-7.67-13.16,0-6.13,4.38-8.58,7.12-8.58,2.41,0,3.42,1.41,5.36,1.41C1104.12,4980.67,1105.41,4979.26,1107.83,4979.26Zm-0.56-6.25c0.48,3-2.27,6.72-5.55,6.6C1101.24,4975.79,1104.78,4973.21,1107.27,4973.01Z" transform="translate(-1090 -4973)"/>
</svg>
