<svg xmlns="http://www.w3.org/2000/svg" width="108" height="36">
    <path fill="#26272D" fill-rule="evenodd" d="M108 9.522s-.876 2.456-2.41 3.945c-.841.817-4.664 1.541-7.012 1.744l-1.013 3.223c1.534-2.34 5.485-2.134 5.348 0-.219 3.405-2.499 4.256-3.814 4.894-1.481.72-2.251.578-2.76.638.088.022 1.643.046 2.191.426 1.534 1.064.656 2.34 1.534 2.34.438 0 .664-.636.808-1.063.288-.852.945-.852.945-.852s1.028-.139 1.343-.08c.86.164.451.764.301 1.19-.066.186-.486 1.011-.676 1.249-.749.939-2.301 1.07-3.248 1.046-1.453-.037-2.103-.851-2.103-2.128 0-1.504-1.753-1.489-1.753-1.489L94.6 27.583s-.138.661-.576.661c-.603 0-.902-.039-1.998-.039-.657 0-.494-.622-.494-.622l1.2-3.353s-2.173 4.014-4.518 3.988c-.726-.009-1.57-.017-2.191-.807-.654-.831-.446-1.955-.08-3.038.591-1.748 1.38-3.691 1.19-3.598-1.386.674-2.323.076-2.509-.021-.624.841-1.229 1.237-2.093 1.595-1.416 6.715-6.843 6.609-8.491 4.809-.997-1.088-1.146-2.736-.668-4.592-.238.182-.7.357-1.139.364-.44.007-.856-.153-.895-.16-.237.949-.61 2.172-1.078 2.899-1.974 3.067-4.602 2.765-5.663 1.914-.609-.488-1.084-1.039-1.522-1.891a4.89 4.89 0 0 1-1.753 1.916c-1.27.811-4.239 1.177-6.055-.976-1.417-1.679-1.923-4.306-.913-7.947.877-3.158 2.669-5.187 3.552-6.02 2.073-1.958 4.702-2.857 6.629-2.768 3.77.174 4.647 2.095 4.722 3.486.411-.293.903-.599 1.488-.882 3.068-1.49 6.071-.945 10.081-.426 5.543.718 9.899.693 15.286.018.191-.549.371-1.04.371-1.04s1.479-4.762 2.269-7.284c.411-1.309.826-2.044 1.45-2.431.993-.615 2.6-.466 3.188.349.475.658 1.039 2.076-.561 5.007-.735 1.345-2.139 3.81-2.621 4.359l-.346.498C106.15 10.521 108 9.522 108 9.522zM84.644 19.587c.448-.283.764-1.036.614-1.453-.194-.536-.885-.533-1.1-.106-.502.997.516 1.537.486 1.559zm-8.467 5.656c.439 1.702 3.507 1.702 4.656-2.341.01-.068.043-.205.056-.273-.036 0-2.959-.152-2.739-1.642.098-.666 1.314-.425 2.41-.425.265 0 .504-.003.723-.009.039-.667-.109-1.31-.723-1.906-.657-.638-2.464-.425-3.725 2.553-.7 1.654-.902 3.096-.658 4.043zM63.952 21.65s1.363-1.153 1.315-3.192c-.018-.751-.768-1.236-1.315-.213-.612 1.145 0 3.405 0 3.405zm16.874-7.235c-6.363-1.235-8.973-1.075-10.957.852-1.973 1.915-2.532.849-2.471.579.14-.628.248-1.492.185-2.012-.139-1.146-.833-1.937-2.391-1.972-1.972-.043-4.209.992-5.67 4.019-1.461 3.027-2.123 7.173-1.049 8.535 1.362 1.726 3.861.092 3.911-.933-.16-.472-1.798-5.455.889-6.898 1.326-.712 5.281.384.898 6.554-.219 1.49 3.068 4.894 5.213 1.04.438-.788.56-1.771.615-2.674-.773-1.028-1.255-2.267-.853-3.256.33-.81 1.235-.888 1.593-.763.909.32 1.093 1.496.915 3.542.195.298.465.354.798.385 1.054.099 1.406-.442 1.519-.556 1.143-2.507 3.448-3.92 5.204-3.908 2.764.02 3.456 1.759 3.537 3.494.706-.048 1.034-.173 1.163-.314-.425-.373-.662-1.082-.713-1.357-.15-.824.179-1.389.695-1.649.474-.239 1.418-.345 1.926.47.682 1.095-.476 2.4-.476 2.4.184.18.723.322 1.389-.282.654-.593 1.387-1.724 1.534-1.915.658-.851 3.052-.583 3.052-.583s-.863 2.669-1.429 4.413c-.363 1.117-1.379 3.725-1.096 4.255.514.963 2.066-.72 2.066-.72 1.557-1.508 3.121-5.501 3.121-5.501s.722-2.41 1.322-4.383c-4.257.025-9.817.036-14.44-.862zm15.224 8.487s2.522.385 3.926-2.34c1.753-3.404-1.973-2.553-3.068-.213l-.858 2.553zm5.148-14.619c1.461-2.235 2.009-4.628 1.754-5.319-.256-.691-.828-.043-1.067.712-.548 1.734-1.87 5.908-2.362 7.352.201-.303 1.151-1.942 1.675-2.745zm-48.384 5.158c-.612.594-2.874 1.184-5.201 1.549-1.348 4.049-2.091 6.416-2.315 7.167-.383 1.282-1.689 4.491-.155 4.502.865.006 1.009-1.504 1.315-1.702.658-.425 2.297-.638 2.516 0 .077.225-.325 1.064-.325 1.064s-.876 2.34-4.324 2.318c-.505-.004-3.945-.384-2.411-4.924.226-.668 1.231-4.22 2.389-8.077-.252.011-.495.018-.721.018l-3.249.002c.275 2.45.418 2.903.369 5.587-.026 1.42-.348 8.72-2.027 11.794-1.412 2.586-2.778 3.012-3.684 3.204-.865.183-2.686-.017-3.371-1.31-.856-1.615.055-4.555.055-4.555l1.974-5.936c-1.053 2.029-2.618 4.138-4.534 4.008-1.979-.134-2.027-1.653-2.027-1.653s-1.142 1.751-3.416 1.653c-2.889-.126-3.094-2.1-3.094-2.1s-2.115 2.149-3.832 2.1c-.727-.021-1.571-.017-2.192-.806-.653-.832-.445-1.956-.079-3.038.591-1.749.896-2.69 1.131-3.575-.095.097-.778 1.243-2.23 1.376-.324.029-.723.037-.998-.006-.7 3.011-2.077 4.594-3.11 5.275-2.294 1.514-6.009 1.3-7.826-.853-1.416-1.68-1.923-4.307-.912-7.947a13.63 13.63 0 0 1 3.552-6.021c2.273-2.243 4.438-2.787 6.656-2.518 1.413.171 3.963 1.173 4.212 3.593.449-.34 1.014-.705 1.704-1.04 3.068-1.49 6.29-.732 10.3-.213 3.86.5 7.067.567 10.461.317.196-.563.383-1.076.383-1.076s1.48-4.762 2.27-7.284c.411-1.309.826-2.043 1.45-2.43.993-.616 2.599-.466 3.188.349.475.658.9 2.439-.561 5.006-.759 1.333-2.139 3.81-2.621 4.359l-.355.692c1.256-.159 2.568-.351 3.974-.571l.276-.044c1.09-3.469 2.143-6.515 2.679-7.165.439-.532 1.691-1.204 2.524-1.613.458-.226.657.124.657.124l-2.448 8.062c4.298-.814 6.393-1.492 6.393-1.492s-.876 2.341-2.41 3.83zm-29.543 11.37c.109 1.53 1.5 1.606 2.319 1.085.514-.327 1.215-1.233 1.58-2.467.454-1.533.78-2.93.694-3.586 0 0 .228-1.349-1.014-1.514-.896-.118-1.735.825-2.548 2.639-.84 1.875-1.082 3.137-1.031 3.843zm-11.557-3.883s.488-1.471-.329-2.306c-.337-.344-1.33-.322-1.15.727.219 1.277 1.26 1.579 1.479 1.579zm16.117-6.21c-6.035-.8-10.533-1.292-12.272.638-1.147 1.272-1.89 1.034-2.149.773-.087-.089-.042-.285-.042-.285l.074-.31c.443-2.16-1.283-3.46-3.164-3.038-1.586.355-3 1.343-4.461 4.369-1.462 3.027-1.703 6.601-.749 7.967 1.229 1.762 3.312 1.896 4.793.099.877-1.064 1.343-2.097 1.524-2.957-.705-.154-1.735-1.029-2.008-1.933-.273-.899-.128-1.791.529-2.216.516-.334 1.935-.526 2.52.815.512 1.171.099 2.391.099 2.391.142.111 1.119.237 1.818-.347.945-.79 1.614-2.769 2.622-3.324.619-.342 2.849-.215 2.849-.215s-.968 3.208-1.534 4.951c-.363 1.117-1.199 3.296-.767 3.735 1.004 1.019 2.754-.876 2.754-.876s-.064-3.401 2.821-6.132c1.2-1.136 2.447-1.761 3.981-1.678 1.534.083 1.525 1.316 1.525 1.316s.589-.898.877-1.101c.62-.439 2.63-.215 2.63-.215s-1.764 5.534-2.076 6.461c-.186.553-.775 2.465.213 2.455 1.818-.019 3.36-2.561 4.347-4.735l1.989-5.98c-3.366-.036-5.251-.166-8.743-.628zm11.615 1.365l-4.88 15.077s-.371 1.257-.17 1.807c.154.421.445.608 1.065.364.669-.261 1.565-.881 2.647-3.528 1.06-2.591 2.079-8.679 1.338-13.72zm3.068-7.235c1.461-2.235 2.009-4.628 1.753-5.319-.255-.69-.827-.042-1.066.713-.548 1.734-1.87 5.907-2.362 7.351.201-.303 1.151-1.942 1.675-2.745z"/>
</svg>
