<svg xmlns="http://www.w3.org/2000/svg" width="24" height="15">
    <path fill="#26272D" fill-rule="evenodd" d="M21.35 8.07v2.61h-1.928V8.07h-2.65V6.171h2.65V3.56h1.928v2.611H24V8.07h-2.65zM7.615 14.999C3.41 14.999.001 11.642.001 7.5.001 3.359 3.41 0 7.615 0c1.98 0 3.783.745 5.137 1.966L10.508 4.13a4.504 4.504 0 0 0-2.893-1.045c-2.475 0-4.482 1.977-4.482 4.415 0 2.438 2.007 4.414 4.482 4.414a4.481 4.481 0 0 0 4.191-2.848H7.519V5.934h7.544c.109.505.166 1.029.166 1.566 0 4.142-3.409 7.499-7.614 7.499z" opacity=".302"/>
</svg>
