<svg xmlns="http://www.w3.org/2000/svg" width="16" height="15">
    <path fill="#26272D" fill-rule="evenodd" d="M12.578 15.008V9.595c0-1.36-.497-2.289-1.739-2.289-.946 0-1.511.626-1.757 1.231-.093.215-.114.519-.114.82v5.651H5.539s.045-9.17 0-10.119h3.429v1.435l-.023.033h.023v-.033c.455-.69 1.268-1.672 3.09-1.672 2.256 0 3.949 1.445 3.949 4.554v5.802h-3.429zM1.926 3.508h-.023C.752 3.508.009 2.731.009 1.76.009.767.775.011 1.949.011c1.173 0 1.895.756 1.916 1.749 0 .971-.743 1.748-1.939 1.748zm1.714 11.5H.212V4.889H3.64v10.119z" opacity=".302"/>
</svg>
