<svg id="Lock_Icon" data-name="Lock Icon" xmlns="http://www.w3.org/2000/svg" width="45" height="54" viewBox="0 0 45 54">
  <defs>
    <style>
      .cls-1, .cls-2 {
        fill: none;
        stroke: #267df4;
        stroke-width: 3px;
      }

      .cls-2 {
        fill-rule: evenodd;
      }
    </style>
  </defs>
  <rect id="Shape" class="cls-1" x="1.5" y="21.5" width="42" height="31" rx="4" ry="4"/>
  <path id="Shape-2" data-name="Shape" class="cls-1" d="M21.5,1.5h2a15,15,0,0,1,15,15v8a0,0,0,0,1,0,0H6.5a0,0,0,0,1,0,0v-8A15,15,0,0,1,21.5,1.5Z"/>
  <path id="Shape-3" data-name="Shape" class="cls-1" d="M22.5,6.5h0a11,11,0,0,1,11,11v7a0,0,0,0,1,0,0h-22a0,0,0,0,1,0,0v-7A11,11,0,0,1,22.5,6.5Z"/>
  <path id="Shape-4" data-name="Shape" class="cls-2" d="M268.575,1155.35a1.511,1.511,0,0,1,2.122,0l4.949,4.95a1.5,1.5,0,1,1-2.121,2.12l-4.95-4.95A1.5,1.5,0,0,1,268.575,1155.35Zm4.95,4.95,7.778-7.77a1.5,1.5,0,0,1,2.122,2.12l-7.779,7.77A1.5,1.5,0,1,1,273.525,1160.3Z" transform="translate(-253.5 -1120.5)"/>
</svg>
