<svg xmlns="http://www.w3.org/2000/svg" width="139.282" height="11.906" viewBox="0 0 139.282 11.906">
  <defs>
    <style>
      .cls-1 {
        fill: #26272d;
        fill-rule: evenodd;
      }
    </style>
  </defs>
  <path id="NewProvidence" class="cls-1" d="M740.959,72.769V61.441H738.3l0.064,7.392h-0.048l-4.544-7.392h-3.12V72.769h2.656l-0.064-7.408H733.3l4.56,7.408h3.1Zm10.24,0V70.434h-5.264V68.082h4.7V65.89h-4.7V63.746h4.976v-2.3H743.3V72.769h7.9Zm17.04-11.328h-2.848l-1.824,7.536h-0.048l-2.032-7.536h-2.848l-2.016,7.536h-0.048l-1.792-7.536h-2.944l3.216,11.328h2.72l2.24-7.664h0.048l2.24,7.664h2.7Zm1.376,11.328H771.2V67.793h1.792a6.973,6.973,0,0,0,1.64-.184,3.868,3.868,0,0,0,1.312-.568,2.673,2.673,0,0,0,.864-0.992,3.152,3.152,0,0,0,.312-1.456,3.228,3.228,0,0,0-.288-1.424,2.589,2.589,0,0,0-.816-0.976,3.61,3.61,0,0,0-1.28-.568,7.015,7.015,0,0,0-1.664-.184h-3.456V72.769Zm1.584-9.984h1.712a5.772,5.772,0,0,1,1.04.088,2.327,2.327,0,0,1,.824.3,1.611,1.611,0,0,1,.544.56,1.684,1.684,0,0,1,.2.856,1.782,1.782,0,0,1-.192.864,1.5,1.5,0,0,1-.544.568,2.646,2.646,0,0,1-.84.32,5.086,5.086,0,0,1-1.064.1H771.2V62.786Zm9.519,4.944h1.7l2.88,5.04h1.92l-3.168-5.2a3.571,3.571,0,0,0,1.984-.976,2.727,2.727,0,0,0,.768-2.016,3.07,3.07,0,0,0-.32-1.464,2.632,2.632,0,0,0-.872-0.968,3.849,3.849,0,0,0-1.288-.536,6.952,6.952,0,0,0-1.552-.168h-3.632V72.769h1.584V67.73Zm0-4.944h1.936a5.22,5.22,0,0,1,.976.088,2.406,2.406,0,0,1,.808.3,1.594,1.594,0,0,1,.552.552,1.644,1.644,0,0,1-.568,2.272,2.632,2.632,0,0,1-.84.312,5.315,5.315,0,0,1-1.04.1h-1.824V62.786Zm19.208,1.88a5.527,5.527,0,0,0-1.256-1.872,5.659,5.659,0,0,0-1.9-1.208,6.863,6.863,0,0,0-4.792,0,5.693,5.693,0,0,0-1.9,1.208,5.451,5.451,0,0,0-1.248,1.872,6.739,6.739,0,0,0,0,4.832,5.55,5.55,0,0,0,3.144,3.12,6.742,6.742,0,0,0,4.792,0,5.63,5.63,0,0,0,1.9-1.232,5.7,5.7,0,0,0,1.256-1.888A6.629,6.629,0,0,0,799.926,64.665Zm-1.56,4.2a4.316,4.316,0,0,1-.864,1.448,3.971,3.971,0,0,1-1.36.968,4.363,4.363,0,0,1-1.776.352,4.257,4.257,0,0,1-1.76-.352,4.034,4.034,0,0,1-1.344-.968,4.349,4.349,0,0,1-.864-1.448,5.154,5.154,0,0,1-.3-1.777,5.038,5.038,0,0,1,.3-1.752,4.535,4.535,0,0,1,.856-1.448,3.955,3.955,0,0,1,1.344-.983,4.557,4.557,0,0,1,3.552,0,4.036,4.036,0,0,1,1.352.983,4.429,4.429,0,0,1,.864,1.448,5.015,5.015,0,0,1,.3,1.752A5.13,5.13,0,0,1,798.366,68.866Zm4.336-7.425h-1.76l4.416,11.328h1.472l4.448-11.328h-1.712l-3.408,9.28H806.11Zm11.5,0h-1.584V72.769h1.584V61.441Zm2.752,11.328h3.888a7.173,7.173,0,0,0,2.176-.344,6.106,6.106,0,0,0,1.968-1.04,5.247,5.247,0,0,0,1.424-1.76,5.464,5.464,0,0,0,.544-2.52,5.634,5.634,0,0,0-.544-2.577,5.153,5.153,0,0,0-1.424-1.76,5.832,5.832,0,0,0-1.968-1.008,7.671,7.671,0,0,0-2.176-.32h-3.888V72.769Zm1.584-9.952h1.984a6.164,6.164,0,0,1,1.9.28,4.334,4.334,0,0,1,1.5.816,3.631,3.631,0,0,1,.984,1.336,4.566,4.566,0,0,1,.352,1.856,4.439,4.439,0,0,1-.352,1.808,3.7,3.7,0,0,1-.984,1.344,4.364,4.364,0,0,1-1.5.832,6,6,0,0,1-1.9.288h-1.984v-8.56Zm12.176,4.769h5.344v-1.36h-5.344V62.834h5.68V61.441h-7.264V72.769h7.5V71.361h-5.92V67.586Zm10.1-6.145H838.75V72.769h1.584V63.521h0.032l5.984,9.248h2V61.441h-1.584V70.5h-0.032Zm18.736,8.7a3.361,3.361,0,0,1-1.3,1.12,3.906,3.906,0,0,1-1.744.385,4.3,4.3,0,0,1-1.768-.353,3.905,3.905,0,0,1-1.344-.968,4.3,4.3,0,0,1-.848-1.448,5.292,5.292,0,0,1-.3-1.792,5.015,5.015,0,0,1,.3-1.752,4.429,4.429,0,0,1,.864-1.448,4.036,4.036,0,0,1,1.352-.983,4.261,4.261,0,0,1,1.784-.36,3.652,3.652,0,0,1,1.64.376,3.122,3.122,0,0,1,1.176.952l1.248-.961a3.61,3.61,0,0,0-.768-0.76,4.732,4.732,0,0,0-.992-0.552,5.831,5.831,0,0,0-1.136-.336,6.307,6.307,0,0,0-1.168-.112,6.525,6.525,0,0,0-2.4.432,5.744,5.744,0,0,0-1.912,1.208,5.475,5.475,0,0,0-1.264,1.872,6.684,6.684,0,0,0-.008,4.832,5.66,5.66,0,0,0,1.24,1.888,5.561,5.561,0,0,0,1.888,1.232,6.353,6.353,0,0,0,2.392.44,5.445,5.445,0,0,0,2.576-.568,5.093,5.093,0,0,0,1.744-1.48Zm4.464-2.56h5.344v-1.36h-5.344V62.834h5.68V61.441H862.43V72.769h7.5V71.361h-5.92V67.586Z" transform="translate(-730.656 -61.156)"/>
</svg>
