<svg xmlns="http://www.w3.org/2000/svg" width="14" height="17">
    <path fill="#26272D" fill-rule="evenodd" d="M5.74 11.246c-.472 2.342-1.05 4.588-2.759 5.762-.528-3.541.775-6.2 1.38-9.023C3.33 6.344 4.485 3.04 6.66 3.854c2.676 1.001-2.318 6.102 1.035 6.74 3.5.665 4.929-5.743 2.759-7.827-3.136-3.009-9.13-.068-8.393 4.24.18 1.053 1.33 1.373.46 2.826C.514 9.413-.085 7.916-.008 5.92.116 2.653 3.096.366 6.085.049c3.78-.4 7.328 1.313 7.818 4.675.551 3.795-1.706 7.905-5.749 7.609-1.095-.081-1.555-.593-2.414-1.087z" opacity=".302"/>
</svg>
