<svg xmlns="http://www.w3.org/2000/svg" width="24" height="23">
    <path fill="#F2BC3B" fill-rule="evenodd" d="M14.871 6.871c.204.63.792 1.057 1.454 1.057h5.988c1.041 0 1.474 1.332.632 1.944l-4.845 3.52a1.53 1.53 0 0 0-.555 1.71l1.85 5.694c.322.99-.811 1.816-1.654 1.202l-4.844-3.519a1.528 1.528 0 0 0-1.798 0l-4.844 3.519c-.842.614-1.976-.212-1.654-1.202l1.85-5.694a1.529 1.529 0 0 0-.556-1.71l-4.844-3.52c-.842-.612-.409-1.944.632-1.944h5.988a1.53 1.53 0 0 0 1.454-1.057l1.851-5.694c.321-.991 1.723-.991 2.044 0l1.851 5.694z"/>
</svg>
