<svg xmlns="http://www.w3.org/2000/svg" width="17" height="14">
    <path fill="#26272D" fill-rule="evenodd" d="M17 1.658a6.922 6.922 0 0 1-2.003.557A3.54 3.54 0 0 0 16.53.26a6.938 6.938 0 0 1-2.215.858A3.457 3.457 0 0 0 11.77.001c-1.926 0-3.488 1.582-3.488 3.534 0 .278.032.547.091.806C5.475 4.193 2.906 2.786 1.186.648a3.545 3.545 0 0 0-.472 1.777c0 1.226.616 2.308 1.551 2.942a3.464 3.464 0 0 1-1.579-.443v.045c0 1.712 1.201 3.14 2.797 3.465a3.438 3.438 0 0 1-1.575.06c.444 1.404 1.732 2.426 3.258 2.454a6.941 6.941 0 0 1-5.164 1.464 9.78 9.78 0 0 0 5.346 1.587c6.414 0 9.922-5.384 9.922-10.054 0-.154-.004-.306-.01-.457A7.142 7.142 0 0 0 17 1.659v-.001z" opacity=".302"/>
</svg>
